<?xml version="1.0" encoding="UTF-8" standalone="no"?>
<!-- Created with Inkscape (http://www.inkscape.org/) -->

<svg
   width="210mm"
   height="297mm"
   viewBox="0 0 210 297"
   version="1.1"
   id="svg674"
   xmlns:inkscape="http://www.inkscape.org/namespaces/inkscape"
   xmlns:sodipodi="http://sodipodi.sourceforge.net/DTD/sodipodi-0.dtd"
   xmlns="http://www.w3.org/2000/svg"
   xmlns:svg="http://www.w3.org/2000/svg">
  <sodipodi:namedview
     id="namedview676"
     pagecolor="#ffffff"
     bordercolor="#000000"
     borderopacity="0.25"
     inkscape:showpageshadow="2"
     inkscape:pageopacity="0.0"
     inkscape:pagecheckerboard="0"
     inkscape:deskcolor="#d1d1d1"
     inkscape:document-units="mm"
     showgrid="false" />
  <defs
     id="defs671" />
  <g
     inkscape:label="Layer 1"
     inkscape:groupmode="layer"
     id="layer1">
    <g
       data-paper-data="{&quot;isSecondaryText&quot;:true}"
       fill-rule="nonzero"
       id="g154"
       style="mix-blend-mode:normal"
       transform="matrix(0.26458333,0,0,0.26458333,30.683164,55.871251)">
      <path
         d="m 125.08823,350.6776 h 0.65277 c 0.0823,0.52927 0.23817,1.00562 0.46753,1.42904 0.22935,0.42342 0.51751,0.78215 0.86448,1.07619 0.34697,0.29404 0.74686,0.52045 1.19969,0.67923 0.45282,0.15878 0.94387,0.23817 1.47315,0.23817 0.87036,0 1.55842,-0.20583 2.06417,-0.61749 0.50575,-0.41166 0.75863,-0.97034 0.75863,-1.67603 0,-0.29404 -0.05,-0.56456 -0.14996,-0.81155 -0.1,-0.24699 -0.26758,-0.48517 -0.50281,-0.71452 -0.23523,-0.22935 -0.54986,-0.45576 -0.94387,-0.67923 -0.39401,-0.22347 -0.89094,-0.46458 -1.49079,-0.72334 -0.72922,-0.31756 -1.34083,-0.62337 -1.83482,-0.91741 -0.49399,-0.29404 -0.888,-0.59984 -1.18204,-0.91741 -0.29404,-0.31756 -0.50281,-0.65571 -0.62631,-1.01444 -0.1235,-0.35873 -0.18525,-0.76745 -0.18525,-1.22615 0,-0.54104 0.097,-1.0409 0.2911,-1.49961 0.19407,-0.4587 0.46753,-0.85566 0.82037,-1.19087 0.35285,-0.33521 0.77039,-0.59396 1.25261,-0.77627 0.48223,-0.18231 1.0115,-0.27346 1.58782,-0.27346 0.51751,0 0.99974,0.0823 1.44668,0.24699 0.44694,0.16466 0.89977,0.4293 1.35847,0.79391 l 0.4587,-0.79391 h 0.40578 l 0.19407,3.51085 h -0.65277 c -0.28228,-0.96445 -0.691,-1.68191 -1.22615,-2.15238 -0.53515,-0.47047 -1.1791,-0.7057 -1.93185,-0.7057 -0.71746,0 -1.2879,0.17642 -1.71132,0.52927 -0.42342,0.35285 -0.63513,0.8292 -0.63513,1.42904 0,0.28228 0.0471,0.53809 0.14114,0.76745 0.0941,0.22935 0.24699,0.44694 0.4587,0.65277 0.21171,0.20583 0.48811,0.41166 0.8292,0.61749 0.34109,0.20583 0.76451,0.42048 1.27026,0.64395 0.87036,0.38813 1.5937,0.7498 2.17002,1.08501 0.57632,0.33521 1.03502,0.67041 1.37611,1.00562 0.34109,0.33521 0.5822,0.68806 0.72334,1.05855 0.14114,0.37049 0.21171,0.78509 0.21171,1.24379 0,0.58808 -0.11762,1.12912 -0.35285,1.62311 -0.23523,0.49399 -0.56456,0.91741 -0.98798,1.27026 -0.42342,0.35285 -0.92917,0.62631 -1.51725,0.82037 -0.58808,0.19407 -1.23497,0.2911 -1.94067,0.2911 -0.67041,0 -1.2732,-0.0941 -1.80835,-0.28228 -0.53515,-0.18819 -1.07913,-0.50575 -1.63193,-0.95269 l -0.49399,0.86448 h -0.40578 z"
         data-paper-data="{&quot;glyphName&quot;:&quot;S&quot;,&quot;glyphIndex&quot;:0,&quot;firstGlyphOfWord&quot;:true,&quot;word&quot;:1}"
         id="path122" />
      <path
         d="M 152.86334,344.60859 H 152.14 c -0.0353,-0.50575 -0.11762,-0.92917 -0.24699,-1.27026 -0.12938,-0.34109 -0.31462,-0.60866 -0.55574,-0.80273 -0.24111,-0.19407 -0.54398,-0.33227 -0.90859,-0.4146 -0.36461,-0.0823 -0.79979,-0.1235 -1.30554,-0.1235 -0.43518,0 -0.78509,0.009 -1.04973,0.0265 -0.26464,0.0176 -0.46753,0.05 -0.60866,0.097 -0.14114,0.0471 -0.23229,0.10291 -0.27346,0.1676 -0.0412,0.0647 -0.0618,0.14996 -0.0618,0.25582 v 9.43871 c 0,0.37637 0.0265,0.69982 0.0794,0.97034 0.0529,0.27052 0.15878,0.49105 0.31756,0.66159 0.15878,0.17054 0.38813,0.29992 0.68806,0.38813 0.29992,0.0882 0.69688,0.1382 1.19087,0.14996 v 0.67041 h -6.66885 v -0.67041 c 0.49399,-0.0118 0.89388,-0.0618 1.19969,-0.14996 0.3058,-0.0882 0.53809,-0.21759 0.69688,-0.38813 0.15878,-0.17054 0.26464,-0.39107 0.31756,-0.66159 0.0529,-0.27052 0.0794,-0.59396 0.0794,-0.97034 v -9.43871 c 0,-0.10585 -0.0206,-0.19113 -0.0617,-0.25582 -0.0412,-0.0647 -0.1235,-0.12056 -0.24699,-0.1676 -0.1235,-0.0471 -0.29698,-0.0794 -0.52045,-0.097 -0.22347,-0.0176 -0.52339,-0.0265 -0.89977,-0.0265 -0.4587,0 -0.88506,0.0176 -1.27908,0.0529 -0.39401,0.0353 -0.7351,0.1382 -1.02326,0.30874 -0.28816,0.17054 -0.52045,0.43224 -0.69688,0.78509 -0.17642,0.35285 -0.27052,0.84096 -0.28228,1.46432 h -0.65277 v -3.36971 h 13.32005 z"
         data-paper-data="{&quot;glyphName&quot;:&quot;T&quot;,&quot;glyphIndex&quot;:1,&quot;word&quot;:1}"
         id="path124" />
      <path
         d="m 161.42581,347.36082 c 0.63513,0 1.16734,-0.0382 1.59664,-0.11468 0.4293,-0.0765 0.77039,-0.19701 1.02326,-0.36167 0.25288,-0.16466 0.43518,-0.37637 0.54692,-0.63513 0.11174,-0.25876 0.1676,-0.56456 0.1676,-0.91741 h 0.61749 v 4.81639 h -0.61749 c 0,-0.35285 -0.05,-0.65865 -0.14996,-0.91741 -0.1,-0.25876 -0.2764,-0.47341 -0.52927,-0.64395 -0.25288,-0.17054 -0.59396,-0.29992 -1.02326,-0.38813 -0.4293,-0.0882 -0.97328,-0.13232 -1.63193,-0.13232 v 3.9872 c 0,0.38813 0.047,0.70864 0.14114,0.96151 0.0941,0.25288 0.25582,0.4587 0.48517,0.61749 0.22935,0.15878 0.53221,0.27052 0.90859,0.33521 0.37637,0.0647 0.84096,0.097 1.39375,0.097 0.62337,0 1.15264,-0.0441 1.58782,-0.13232 0.43518,-0.0882 0.79979,-0.23817 1.09383,-0.44988 0.29404,-0.21171 0.52927,-0.49105 0.7057,-0.83802 0.17642,-0.34697 0.32345,-0.77921 0.44106,-1.29672 h 0.67041 l -0.26464,3.47556 h -10.95597 v -0.67041 c 0.41166,-0.0118 0.74392,-0.0471 0.9968,-0.10585 0.25288,-0.0588 0.44988,-0.15878 0.59102,-0.29992 0.14114,-0.14114 0.23523,-0.34109 0.28228,-0.59984 0.0471,-0.25876 0.0706,-0.59396 0.0706,-1.00562 v -8.22138 c 0,-0.41166 -0.0206,-0.74392 -0.0617,-0.9968 -0.0412,-0.25288 -0.1235,-0.45282 -0.24699,-0.59984 -0.1235,-0.14702 -0.30286,-0.24699 -0.53809,-0.29992 -0.23523,-0.0529 -0.54104,-0.0912 -0.91741,-0.11468 v -0.67041 h 10.19734 l 0.15878,3.10507 h -0.61749 c -0.0706,-0.47047 -0.18525,-0.85566 -0.34403,-1.15558 -0.15878,-0.29992 -0.37637,-0.53809 -0.65277,-0.71452 -0.2764,-0.17642 -0.62631,-0.29992 -1.04973,-0.37049 -0.42342,-0.0706 -0.93505,-0.10585 -1.53489,-0.10585 h -2.24059 c -0.19995,0 -0.29992,0.1 -0.29992,0.29992 z"
         data-paper-data="{&quot;glyphName&quot;:&quot;E&quot;,&quot;glyphIndex&quot;:2,&quot;word&quot;:1}"
         id="path126" />
      <path
         d="m 177.90974,347.36082 c 0.63513,0 1.16734,-0.0382 1.59664,-0.11468 0.4293,-0.0765 0.77039,-0.19701 1.02326,-0.36167 0.25288,-0.16466 0.43518,-0.37637 0.54692,-0.63513 0.11174,-0.25876 0.1676,-0.56456 0.1676,-0.91741 h 0.61749 v 4.81639 h -0.61749 c 0,-0.35285 -0.05,-0.65865 -0.14996,-0.91741 -0.1,-0.25876 -0.2764,-0.47341 -0.52927,-0.64395 -0.25288,-0.17054 -0.59396,-0.29992 -1.02326,-0.38813 -0.4293,-0.0882 -0.97328,-0.13232 -1.63193,-0.13232 v 3.9872 c 0,0.38813 0.0471,0.70864 0.14114,0.96151 0.0941,0.25288 0.25582,0.4587 0.48517,0.61749 0.22935,0.15878 0.53221,0.27052 0.90859,0.33521 0.37637,0.0647 0.84096,0.097 1.39375,0.097 0.62337,0 1.15264,-0.0441 1.58782,-0.13232 0.43518,-0.0882 0.79979,-0.23817 1.09383,-0.44988 0.29404,-0.21171 0.52927,-0.49105 0.7057,-0.83802 0.17642,-0.34697 0.32345,-0.77921 0.44106,-1.29672 h 0.67041 l -0.26464,3.47556 H 174.1166 v -0.67041 c 0.41166,-0.0118 0.74392,-0.0471 0.9968,-0.10585 0.25288,-0.0588 0.44988,-0.15878 0.59102,-0.29992 0.14114,-0.14114 0.23523,-0.34109 0.28228,-0.59984 0.047,-0.25876 0.0706,-0.59396 0.0706,-1.00562 v -8.22138 c 0,-0.41166 -0.0206,-0.74392 -0.0617,-0.9968 -0.0412,-0.25288 -0.1235,-0.45282 -0.24699,-0.59984 -0.1235,-0.14702 -0.30286,-0.24699 -0.53809,-0.29992 -0.23523,-0.0529 -0.54104,-0.0912 -0.91741,-0.11468 v -0.67041 h 10.19734 l 0.15878,3.10507 h -0.61749 c -0.0706,-0.47047 -0.18525,-0.85566 -0.34403,-1.15558 -0.15878,-0.29992 -0.37637,-0.53809 -0.65277,-0.71452 -0.2764,-0.17642 -0.62631,-0.29992 -1.04973,-0.37049 -0.42342,-0.0706 -0.93505,-0.10585 -1.53489,-0.10585 h -2.24059 c -0.19995,0 -0.29992,0.1 -0.29992,0.29992 z"
         data-paper-data="{&quot;glyphName&quot;:&quot;E&quot;,&quot;glyphIndex&quot;:3,&quot;word&quot;:1}"
         id="path128" />
      <path
         d="m 201.99758,354.82358 h -11.39703 v -0.67041 c 0.41166,-0.0118 0.74392,-0.0471 0.9968,-0.10585 0.25288,-0.0588 0.44988,-0.15878 0.59102,-0.29992 0.14114,-0.14114 0.23523,-0.34109 0.28228,-0.59984 0.047,-0.25876 0.0706,-0.59396 0.0706,-1.00562 v -8.22138 c 0,-0.41166 -0.0206,-0.74392 -0.0618,-0.9968 -0.0412,-0.25288 -0.1235,-0.45282 -0.24699,-0.59984 -0.1235,-0.14702 -0.30286,-0.24699 -0.53809,-0.29992 -0.23523,-0.0529 -0.54104,-0.0912 -0.91741,-0.11468 v -0.67041 h 5.36331 v 0.67041 c -0.37637,0.0118 -0.67923,0.0471 -0.90859,0.10585 -0.22935,0.0588 -0.40578,0.16466 -0.52927,0.31756 -0.1235,0.1529 -0.20583,0.36461 -0.24699,0.63513 -0.0412,0.27052 -0.0618,0.62925 -0.0618,1.07619 v 7.6039 c 0,0.49399 0.05,0.89682 0.14996,1.20851 0.1,0.31168 0.27052,0.5528 0.51163,0.72334 0.24111,0.17054 0.56162,0.28816 0.96151,0.35285 0.3999,0.0647 0.90565,0.097 1.51725,0.097 0.67041,0 1.23497,-0.0382 1.69368,-0.11468 0.4587,-0.0765 0.8439,-0.21171 1.15558,-0.40578 0.31168,-0.19407 0.55868,-0.46458 0.74098,-0.81155 0.18231,-0.34697 0.33815,-0.79685 0.46753,-1.34965 h 0.67041 z"
         data-paper-data="{&quot;glyphName&quot;:&quot;L&quot;,&quot;glyphIndex&quot;:4,&quot;lastGlyphOfWord&quot;:true,&quot;word&quot;:1}"
         id="path130" />
      <path
         d="m 219.10488,347.36082 c 0.63513,0 1.16734,-0.0382 1.59664,-0.11468 0.4293,-0.0765 0.77039,-0.19701 1.02326,-0.36167 0.25288,-0.16466 0.43518,-0.37637 0.54692,-0.63513 0.11174,-0.25876 0.1676,-0.56456 0.1676,-0.91741 h 0.61749 v 4.81639 h -0.61749 c 0,-0.35285 -0.05,-0.65865 -0.14996,-0.91741 -0.1,-0.25876 -0.2764,-0.47341 -0.52927,-0.64395 -0.25288,-0.17054 -0.59396,-0.29992 -1.02326,-0.38813 -0.4293,-0.0882 -0.97328,-0.13232 -1.63193,-0.13232 v 3.9872 c 0,0.38813 0.047,0.70864 0.14114,0.96151 0.0941,0.25288 0.25582,0.4587 0.48517,0.61749 0.22935,0.15878 0.53221,0.27052 0.90859,0.33521 0.37637,0.0647 0.84096,0.097 1.39375,0.097 0.62337,0 1.15264,-0.0441 1.58782,-0.13232 0.43518,-0.0882 0.79979,-0.23817 1.09383,-0.44988 0.29404,-0.21171 0.52927,-0.49105 0.7057,-0.83802 0.17642,-0.34697 0.32345,-0.77921 0.44106,-1.29672 h 0.67041 l -0.26464,3.47556 h -10.95597 v -0.67041 c 0.41166,-0.0118 0.74392,-0.0471 0.9968,-0.10585 0.25288,-0.0588 0.44988,-0.15878 0.59102,-0.29992 0.14114,-0.14114 0.23523,-0.34109 0.28228,-0.59984 0.0471,-0.25876 0.0706,-0.59396 0.0706,-1.00562 v -8.22138 c 0,-0.41166 -0.0206,-0.74392 -0.0617,-0.9968 -0.0412,-0.25288 -0.1235,-0.45282 -0.24699,-0.59984 -0.1235,-0.14702 -0.30286,-0.24699 -0.53809,-0.29992 -0.23523,-0.0529 -0.54104,-0.0912 -0.91741,-0.11468 v -0.67041 h 10.19734 l 0.15878,3.10507 h -0.61749 c -0.0706,-0.47047 -0.18525,-0.85566 -0.34403,-1.15558 -0.15878,-0.29992 -0.37637,-0.53809 -0.65277,-0.71452 -0.2764,-0.17642 -0.62631,-0.29992 -1.04973,-0.37049 -0.42342,-0.0706 -0.93505,-0.10585 -1.53489,-0.10585 h -2.24059 c -0.19995,0 -0.29992,0.1 -0.29992,0.29992 z"
         data-paper-data="{&quot;glyphName&quot;:&quot;E&quot;,&quot;glyphIndex&quot;:5,&quot;firstGlyphOfWord&quot;:true,&quot;word&quot;:2}"
         id="path132" />
      <path
         d="m 242.61051,344.64388 c 0,0.94093 -0.28228,1.72308 -0.84684,2.34645 -0.56456,0.62337 -1.46432,1.0409 -2.6993,1.25261 l 3.89898,4.69289 c 0.31756,0.38813 0.66747,0.66747 1.04973,0.83802 0.38225,0.17054 0.83802,0.29698 1.36729,0.37931 v 0.67041 h -3.40499 l -4.3224,-5.53973 c -0.1529,-0.19995 -0.29698,-0.35873 -0.43224,-0.47635 -0.13526,-0.11762 -0.2764,-0.20877 -0.42342,-0.27346 -0.14702,-0.0647 -0.31756,-0.10585 -0.51163,-0.1235 -0.19407,-0.0176 -0.42636,-0.0265 -0.69688,-0.0265 v 3.66963 c 0,0.43518 0.0265,0.79097 0.0794,1.06737 0.0529,0.2764 0.16466,0.49105 0.33521,0.64395 0.17054,0.1529 0.41754,0.25582 0.74098,0.30874 0.32345,0.0529 0.7498,0.0794 1.27908,0.0794 v 0.67041 h -6.22779 v -0.67041 c 0.41166,-0.0118 0.74392,-0.047 0.9968,-0.10585 0.25288,-0.0588 0.44988,-0.15878 0.59102,-0.29992 0.14114,-0.14114 0.23523,-0.34109 0.28228,-0.59984 0.047,-0.25876 0.0706,-0.59396 0.0706,-1.00562 v -8.22138 c 0,-0.41166 -0.0206,-0.74392 -0.0617,-0.9968 -0.0412,-0.25288 -0.1235,-0.45282 -0.24699,-0.59984 -0.1235,-0.14702 -0.30286,-0.24699 -0.53809,-0.29992 -0.23523,-0.0529 -0.54104,-0.0911 -0.91741,-0.11468 v -0.67041 h 5.53973 c 1.62311,0 2.87866,0.29992 3.76666,0.89977 0.888,0.59984 1.33201,1.43492 1.33201,2.50523 z m -7.02169,2.85808 h 1.25261 c 1.17616,0 2.04947,-0.21465 2.6199,-0.64395 0.57044,-0.4293 0.85566,-1.13794 0.85566,-2.12592 0,-0.95269 -0.22641,-1.63487 -0.67923,-2.04652 -0.45282,-0.41166 -1.16146,-0.61749 -2.12592,-0.61749 h -1.62311 c -0.19995,0 -0.29992,0.1 -0.29992,0.29992 z"
         data-paper-data="{&quot;glyphName&quot;:&quot;R&quot;,&quot;glyphIndex&quot;:6,&quot;word&quot;:2}"
         id="path134" />
      <path
         d="m 253.16658,347.36082 c 0.63513,0 1.16734,-0.0382 1.59664,-0.11468 0.4293,-0.0765 0.77039,-0.19701 1.02326,-0.36167 0.25288,-0.16466 0.43518,-0.37637 0.54692,-0.63513 0.11174,-0.25876 0.1676,-0.56456 0.1676,-0.91741 h 0.61749 v 4.81639 H 256.501 c 0,-0.35285 -0.05,-0.65865 -0.14996,-0.91741 -0.1,-0.25876 -0.2764,-0.47341 -0.52927,-0.64395 -0.25288,-0.17054 -0.59396,-0.29992 -1.02326,-0.38813 -0.4293,-0.0882 -0.97328,-0.13232 -1.63193,-0.13232 v 3.9872 c 0,0.38813 0.047,0.70864 0.14114,0.96151 0.0941,0.25288 0.25582,0.4587 0.48517,0.61749 0.22935,0.15878 0.53221,0.27052 0.90859,0.33521 0.37637,0.0647 0.84096,0.097 1.39375,0.097 0.62337,0 1.15264,-0.0441 1.58782,-0.13232 0.43518,-0.0882 0.79979,-0.23817 1.09383,-0.44988 0.29404,-0.21171 0.52927,-0.49105 0.7057,-0.83802 0.17642,-0.34697 0.32345,-0.77921 0.44106,-1.29672 h 0.67041 l -0.26464,3.47556 h -10.95597 v -0.67041 c 0.41166,-0.0118 0.74392,-0.0471 0.9968,-0.10585 0.25288,-0.0588 0.44988,-0.15878 0.59102,-0.29992 0.14114,-0.14114 0.23523,-0.34109 0.28228,-0.59984 0.0471,-0.25876 0.0706,-0.59396 0.0706,-1.00562 v -8.22138 c 0,-0.41166 -0.0206,-0.74392 -0.0617,-0.9968 -0.0412,-0.25288 -0.1235,-0.45282 -0.24699,-0.59984 -0.1235,-0.14702 -0.30286,-0.24699 -0.53809,-0.29992 -0.23523,-0.0529 -0.54104,-0.0912 -0.91741,-0.11468 v -0.67041 h 10.19734 l 0.15878,3.10507 h -0.61749 c -0.0706,-0.47047 -0.18525,-0.85566 -0.34403,-1.15558 -0.15878,-0.29992 -0.37637,-0.53809 -0.65277,-0.71452 -0.2764,-0.17642 -0.62631,-0.29992 -1.04973,-0.37049 -0.42342,-0.0706 -0.93505,-0.10585 -1.53489,-0.10585 h -2.24059 c -0.19995,0 -0.29992,0.1 -0.29992,0.29992 z"
         data-paper-data="{&quot;glyphName&quot;:&quot;E&quot;,&quot;glyphIndex&quot;:7,&quot;word&quot;:2}"
         id="path136" />
      <path
         d="m 277.21913,341.23888 h 0.49399 l 0.15878,4.05776 h -0.65277 c -0.25876,-1.03502 -0.75863,-1.84658 -1.49961,-2.43466 -0.74098,-0.58808 -1.63487,-0.88212 -2.68165,-0.88212 -0.71746,0 -1.35847,0.14114 -1.92303,0.42342 -0.56456,0.28228 -1.0409,0.68806 -1.42904,1.21733 -0.38813,0.52927 -0.68512,1.17616 -0.89094,1.94067 -0.20583,0.76451 -0.30874,1.62899 -0.30874,2.59344 0,1.89362 0.39401,3.34913 1.18204,4.36651 0.78803,1.01738 1.92891,1.52607 3.42264,1.52607 2.27,0 3.72844,-1.20557 4.37533,-3.6167 h 0.72334 v 4.39297 h -0.61749 l -0.40578,-1.39375 C 275.93123,354.47661 274.4375,355 272.68502,355 c -0.99974,0 -1.90244,-0.15878 -2.70812,-0.47635 -0.80567,-0.31756 -1.49373,-0.76745 -2.06417,-1.34965 -0.57044,-0.5822 -1.0115,-1.29084 -1.32318,-2.12592 -0.31168,-0.83508 -0.46753,-1.76425 -0.46753,-2.78751 0,-1.07031 0.16466,-2.04652 0.49399,-2.92865 0.32933,-0.88212 0.79097,-1.64075 1.38493,-2.27588 0.59396,-0.63513 1.30554,-1.12618 2.13474,-1.47315 0.8292,-0.34697 1.74366,-0.52045 2.7434,-0.52045 0.7057,0 1.37023,0.1 1.9936,0.29992 0.62337,0.19995 1.29966,0.52339 2.02888,0.97034 z"
         data-paper-data="{&quot;glyphName&quot;:&quot;C&quot;,&quot;glyphIndex&quot;:8,&quot;word&quot;:2}"
         id="path138" />
      <path
         d="m 296.75521,344.60859 h -0.72334 c -0.0353,-0.50575 -0.11762,-0.92917 -0.24699,-1.27026 -0.12938,-0.34109 -0.31462,-0.60866 -0.55574,-0.80273 -0.24111,-0.19407 -0.54398,-0.33227 -0.90859,-0.4146 -0.36461,-0.0823 -0.79979,-0.1235 -1.30554,-0.1235 -0.43518,0 -0.78509,0.009 -1.04973,0.0265 -0.26464,0.0176 -0.46753,0.05 -0.60866,0.097 -0.14114,0.0471 -0.23229,0.10291 -0.27346,0.1676 -0.0412,0.0647 -0.0618,0.14996 -0.0618,0.25582 v 9.43871 c 0,0.37637 0.0265,0.69982 0.0794,0.97034 0.0529,0.27052 0.15878,0.49105 0.31756,0.66159 0.15878,0.17054 0.38813,0.29992 0.68806,0.38813 0.29992,0.0882 0.69688,0.1382 1.19087,0.14996 v 0.67041 h -6.66885 v -0.67041 c 0.49399,-0.0118 0.89388,-0.0618 1.19969,-0.14996 0.3058,-0.0882 0.53809,-0.21759 0.69688,-0.38813 0.15878,-0.17054 0.26464,-0.39107 0.31756,-0.66159 0.0529,-0.27052 0.0794,-0.59396 0.0794,-0.97034 v -9.43871 c 0,-0.10585 -0.0206,-0.19113 -0.0618,-0.25582 -0.0412,-0.0647 -0.1235,-0.12056 -0.24699,-0.1676 -0.1235,-0.0471 -0.29698,-0.0794 -0.52045,-0.097 -0.22347,-0.0176 -0.52339,-0.0265 -0.89977,-0.0265 -0.4587,0 -0.88506,0.0176 -1.27908,0.0529 -0.39401,0.0353 -0.7351,0.1382 -1.02326,0.30874 -0.28816,0.17054 -0.52045,0.43224 -0.69688,0.78509 -0.17642,0.35285 -0.27052,0.84096 -0.28228,1.46432 h -0.65277 v -3.36971 h 13.32005 z"
         data-paper-data="{&quot;glyphName&quot;:&quot;T&quot;,&quot;glyphIndex&quot;:9,&quot;word&quot;:2}"
         id="path140" />
      <path
         d="m 308.91675,341.06246 c 1.03502,0 1.99948,0.18231 2.89336,0.54692 0.89388,0.36461 1.67015,0.86448 2.3288,1.49961 0.65865,0.63513 1.17616,1.38199 1.55254,2.24059 0.37637,0.8586 0.56456,1.78777 0.56456,2.78751 0,0.95269 -0.19113,1.84658 -0.57338,2.68165 -0.38225,0.83508 -0.90271,1.56136 -1.56136,2.17884 -0.65865,0.61749 -1.43492,1.10559 -2.3288,1.46432 -0.89388,0.35873 -1.85246,0.53809 -2.87572,0.53809 -1.02326,0 -1.98184,-0.17936 -2.87572,-0.53809 -0.89388,-0.35873 -1.67015,-0.84684 -2.3288,-1.46432 -0.65865,-0.61749 -1.1791,-1.34377 -1.56136,-2.17884 -0.38225,-0.83508 -0.57338,-1.72896 -0.57338,-2.68165 0,-0.99974 0.18819,-1.92891 0.56456,-2.78751 0.37637,-0.8586 0.89388,-1.60546 1.55254,-2.24059 0.65865,-0.63513 1.43492,-1.135 2.3288,-1.49961 0.89388,-0.36461 1.85834,-0.54692 2.89336,-0.54692 z m 0,12.9672 c 0.77627,0 1.47315,-0.13526 2.09063,-0.40578 0.61749,-0.27052 1.14676,-0.65865 1.58782,-1.1644 0.44106,-0.50575 0.77921,-1.1203 1.01444,-1.84364 0.23523,-0.72334 0.35285,-1.53195 0.35285,-2.42584 0,-0.94093 -0.11762,-1.79071 -0.35285,-2.54933 -0.23523,-0.75863 -0.57044,-1.40552 -1.00562,-1.94067 -0.43518,-0.53515 -0.96445,-0.94681 -1.58782,-1.23497 -0.62337,-0.28816 -1.32318,-0.43224 -2.09945,-0.43224 -0.77627,0 -1.47609,0.14408 -2.09945,0.43224 -0.62337,0.28816 -1.15264,0.69982 -1.58782,1.23497 -0.43518,0.53515 -0.77039,1.18204 -1.00562,1.94067 -0.23523,0.75863 -0.35285,1.6084 -0.35285,2.54933 0,0.89388 0.11762,1.7025 0.35285,2.42584 0.23523,0.72334 0.57044,1.33789 1.00562,1.84364 0.43518,0.50575 0.96445,0.89388 1.58782,1.1644 0.62337,0.27052 1.32318,0.40578 2.09945,0.40578 z"
         data-paper-data="{&quot;glyphName&quot;:&quot;O&quot;,&quot;glyphIndex&quot;:10,&quot;word&quot;:2}"
         id="path142" />
      <path
         d="m 332.31652,344.64388 c 0,0.94093 -0.28228,1.72308 -0.84684,2.34645 -0.56456,0.62337 -1.46432,1.0409 -2.6993,1.25261 l 3.89898,4.69289 c 0.31756,0.38813 0.66747,0.66747 1.04973,0.83802 0.38225,0.17054 0.83802,0.29698 1.36729,0.37931 v 0.67041 h -3.40499 l -4.3224,-5.53973 c -0.1529,-0.19995 -0.29698,-0.35873 -0.43224,-0.47635 -0.13526,-0.11762 -0.2764,-0.20877 -0.42342,-0.27346 -0.14702,-0.0647 -0.31756,-0.10585 -0.51163,-0.1235 -0.19407,-0.0176 -0.42636,-0.0265 -0.69688,-0.0265 v 3.66963 c 0,0.43518 0.0265,0.79097 0.0794,1.06737 0.0529,0.2764 0.16466,0.49105 0.33521,0.64395 0.17054,0.1529 0.41754,0.25582 0.74098,0.30874 0.32345,0.0529 0.7498,0.0794 1.27908,0.0794 v 0.67041 h -6.22779 v -0.67041 c 0.41166,-0.0118 0.74392,-0.047 0.9968,-0.10585 0.25288,-0.0588 0.44988,-0.15878 0.59102,-0.29992 0.14114,-0.14114 0.23523,-0.34109 0.28228,-0.59984 0.0471,-0.25876 0.0706,-0.59396 0.0706,-1.00562 v -8.22138 c 0,-0.41166 -0.0206,-0.74392 -0.0618,-0.9968 -0.0412,-0.25288 -0.1235,-0.45282 -0.24699,-0.59984 -0.1235,-0.14702 -0.30286,-0.24699 -0.53809,-0.29992 -0.23523,-0.0529 -0.54104,-0.0911 -0.91741,-0.11468 v -0.67041 h 5.53973 c 1.62311,0 2.87866,0.29992 3.76666,0.89977 0.888,0.59984 1.33201,1.43492 1.33201,2.50523 z m -7.02169,2.85808 h 1.25261 c 1.17616,0 2.04947,-0.21465 2.6199,-0.64395 0.57044,-0.4293 0.85566,-1.13794 0.85566,-2.12592 0,-0.95269 -0.22641,-1.63487 -0.67923,-2.04652 -0.45282,-0.41166 -1.16146,-0.61749 -2.12592,-0.61749 h -1.62311 c -0.19995,0 -0.29992,0.1 -0.29992,0.29992 z"
         data-paper-data="{&quot;glyphName&quot;:&quot;R&quot;,&quot;glyphIndex&quot;:11,&quot;word&quot;:2}"
         id="path144" />
      <path
         d="m 339.30882,350.6776 h 0.65277 c 0.0823,0.52927 0.23817,1.00562 0.46753,1.42904 0.22935,0.42342 0.51751,0.78215 0.86448,1.07619 0.34697,0.29404 0.74686,0.52045 1.19969,0.67923 0.45282,0.15878 0.94387,0.23817 1.47315,0.23817 0.87036,0 1.55842,-0.20583 2.06417,-0.61749 0.50575,-0.41166 0.75863,-0.97034 0.75863,-1.67603 0,-0.29404 -0.05,-0.56456 -0.14996,-0.81155 -0.1,-0.24699 -0.26758,-0.48517 -0.50281,-0.71452 -0.23523,-0.22935 -0.54986,-0.45576 -0.94387,-0.67923 -0.39401,-0.22347 -0.89094,-0.46458 -1.49079,-0.72334 -0.72922,-0.31756 -1.34083,-0.62337 -1.83482,-0.91741 -0.49399,-0.29404 -0.888,-0.59984 -1.18204,-0.91741 -0.29404,-0.31756 -0.50281,-0.65571 -0.62631,-1.01444 -0.1235,-0.35873 -0.18525,-0.76745 -0.18525,-1.22615 0,-0.54104 0.097,-1.0409 0.2911,-1.49961 0.19407,-0.4587 0.46753,-0.85566 0.82037,-1.19087 0.35285,-0.33521 0.77039,-0.59396 1.25261,-0.77627 0.48223,-0.18231 1.0115,-0.27346 1.58782,-0.27346 0.51751,0 0.99974,0.0823 1.44668,0.24699 0.44694,0.16466 0.89977,0.4293 1.35847,0.79391 l 0.4587,-0.79391 h 0.40578 l 0.19407,3.51085 h -0.65277 c -0.28228,-0.96445 -0.691,-1.68191 -1.22615,-2.15238 -0.53515,-0.47047 -1.1791,-0.7057 -1.93185,-0.7057 -0.71746,0 -1.2879,0.17642 -1.71132,0.52927 -0.42342,0.35285 -0.63513,0.8292 -0.63513,1.42904 0,0.28228 0.0471,0.53809 0.14114,0.76745 0.0941,0.22935 0.24699,0.44694 0.4587,0.65277 0.21171,0.20583 0.48811,0.41166 0.8292,0.61749 0.34109,0.20583 0.76451,0.42048 1.27026,0.64395 0.87036,0.38813 1.5937,0.7498 2.17002,1.08501 0.57632,0.33521 1.03502,0.67041 1.37611,1.00562 0.34109,0.33521 0.5822,0.68806 0.72334,1.05855 0.14114,0.37049 0.21171,0.78509 0.21171,1.24379 0,0.58808 -0.11762,1.12912 -0.35285,1.62311 -0.23523,0.49399 -0.56456,0.91741 -0.98798,1.27026 -0.42342,0.35285 -0.92917,0.62631 -1.51725,0.82037 -0.58808,0.19407 -1.23497,0.2911 -1.94067,0.2911 -0.67041,0 -1.2732,-0.0941 -1.80835,-0.28228 -0.53515,-0.18819 -1.07913,-0.50575 -1.63193,-0.95269 l -0.49399,0.86448 h -0.40578 z"
         data-paper-data="{&quot;glyphName&quot;:&quot;S&quot;,&quot;glyphIndex&quot;:12,&quot;lastGlyphOfWord&quot;:true,&quot;word&quot;:2}"
         id="path146" />
      <path
         d="m 374.27028,354.82358 h -11.39703 v -0.67041 c 0.41166,-0.0118 0.74392,-0.0471 0.9968,-0.10585 0.25288,-0.0588 0.44988,-0.15878 0.59102,-0.29992 0.14114,-0.14114 0.23523,-0.34109 0.28228,-0.59984 0.047,-0.25876 0.0706,-0.59396 0.0706,-1.00562 v -8.22138 c 0,-0.41166 -0.0206,-0.74392 -0.0618,-0.9968 -0.0412,-0.25288 -0.1235,-0.45282 -0.24699,-0.59984 -0.1235,-0.14702 -0.30286,-0.24699 -0.53809,-0.29992 -0.23523,-0.0529 -0.54104,-0.0912 -0.91741,-0.11468 v -0.67041 h 5.36331 v 0.67041 c -0.37637,0.0118 -0.67923,0.0471 -0.90859,0.10585 -0.22935,0.0588 -0.40578,0.16466 -0.52927,0.31756 -0.1235,0.1529 -0.20583,0.36461 -0.24699,0.63513 -0.0412,0.27052 -0.0618,0.62925 -0.0618,1.07619 v 7.6039 c 0,0.49399 0.05,0.89682 0.14996,1.20851 0.1,0.31168 0.27052,0.5528 0.51163,0.72334 0.24111,0.17054 0.56162,0.28816 0.96151,0.35285 0.3999,0.0647 0.90565,0.097 1.51725,0.097 0.67041,0 1.23497,-0.0382 1.69368,-0.11468 0.4587,-0.0765 0.8439,-0.21171 1.15558,-0.40578 0.31168,-0.19407 0.55868,-0.46458 0.74098,-0.81155 0.18231,-0.34697 0.33815,-0.79685 0.46753,-1.34965 h 0.67041 z"
         data-paper-data="{&quot;glyphName&quot;:&quot;L&quot;,&quot;glyphIndex&quot;:13,&quot;firstGlyphOfWord&quot;:true,&quot;word&quot;:3}"
         id="path148" />
      <path
         d="m 390.77186,354.82358 h -11.39703 v -0.67041 c 0.41166,-0.0118 0.74392,-0.0471 0.9968,-0.10585 0.25288,-0.0588 0.44988,-0.15878 0.59102,-0.29992 0.14114,-0.14114 0.23523,-0.34109 0.28228,-0.59984 0.0471,-0.25876 0.0706,-0.59396 0.0706,-1.00562 v -8.22138 c 0,-0.41166 -0.0206,-0.74392 -0.0617,-0.9968 -0.0412,-0.25288 -0.1235,-0.45282 -0.24699,-0.59984 -0.1235,-0.14702 -0.30286,-0.24699 -0.53809,-0.29992 -0.23523,-0.0529 -0.54104,-0.0912 -0.91741,-0.11468 v -0.67041 h 5.36331 v 0.67041 c -0.37637,0.0118 -0.67923,0.0471 -0.90859,0.10585 -0.22935,0.0588 -0.40578,0.16466 -0.52927,0.31756 -0.1235,0.1529 -0.20583,0.36461 -0.24699,0.63513 -0.0412,0.27052 -0.0617,0.62925 -0.0617,1.07619 v 7.6039 c 0,0.49399 0.05,0.89682 0.14996,1.20851 0.1,0.31168 0.27052,0.5528 0.51163,0.72334 0.24111,0.17054 0.56162,0.28816 0.96151,0.35285 0.3999,0.0647 0.90565,0.097 1.51725,0.097 0.67041,0 1.23497,-0.0382 1.69368,-0.11468 0.4587,-0.0765 0.8439,-0.21171 1.15558,-0.40578 0.31168,-0.19407 0.55868,-0.46458 0.74098,-0.81155 0.18231,-0.34697 0.33815,-0.79685 0.46753,-1.34965 h 0.67041 z"
         data-paper-data="{&quot;glyphName&quot;:&quot;L&quot;,&quot;glyphIndex&quot;:14,&quot;word&quot;:3}"
         id="path150" />
      <path
         d="m 407.23815,341.23888 h 0.49399 l 0.15878,4.05776 h -0.65277 c -0.25876,-1.03502 -0.75863,-1.84658 -1.49961,-2.43466 -0.74098,-0.58808 -1.63487,-0.88212 -2.68165,-0.88212 -0.71746,0 -1.35847,0.14114 -1.92303,0.42342 -0.56456,0.28228 -1.0409,0.68806 -1.42904,1.21733 -0.38813,0.52927 -0.68512,1.17616 -0.89094,1.94067 -0.20583,0.76451 -0.30874,1.62899 -0.30874,2.59344 0,1.89362 0.39401,3.34913 1.18204,4.36651 0.78803,1.01738 1.92891,1.52607 3.42264,1.52607 2.27,0 3.72844,-1.20557 4.37533,-3.6167 h 0.72334 v 4.39297 H 407.591 l -0.40578,-1.39375 c -1.23497,1.04679 -2.7287,1.57018 -4.48118,1.57018 -0.99974,0 -1.90244,-0.15878 -2.70812,-0.47635 -0.80567,-0.31756 -1.49373,-0.76745 -2.06417,-1.34965 -0.57044,-0.5822 -1.0115,-1.29084 -1.32318,-2.12592 -0.31168,-0.83508 -0.46753,-1.76425 -0.46753,-2.78751 0,-1.07031 0.16466,-2.04652 0.49399,-2.92865 0.32933,-0.88212 0.79097,-1.64075 1.38493,-2.27588 0.59396,-0.63513 1.30554,-1.12618 2.13474,-1.47315 0.8292,-0.34697 1.74366,-0.52045 2.7434,-0.52045 0.7057,0 1.37023,0.1 1.9936,0.29992 0.62337,0.19995 1.29966,0.52339 2.02888,0.97034 z"
         data-paper-data="{&quot;glyphName&quot;:&quot;C&quot;,&quot;glyphIndex&quot;:15,&quot;lastGlyphOfWord&quot;:true,&quot;word&quot;:3}"
         id="path152" />
    </g>
    <g
       data-paper-data="{&quot;isPrimaryText&quot;:true}"
       fill-rule="nonzero"
       id="g166"
       style="mix-blend-mode:normal"
       transform="matrix(0.26458333,0,0,0.26458333,30.683164,55.871251)">
      <path
         d="m 123.30046,329.43351 v 0 h 21.08269 c -1.34163,-2.2041 -2.39576,-5.3665 -2.39576,-7.85809 v -14.94954 h 15.23704 v 14.94954 c 0,2.49159 -1.05413,5.65399 -2.49159,7.85809 h 21.17852 c -1.43746,-2.2041 -2.49159,-5.3665 -2.49159,-7.85809 v -38.42799 c 0,-2.49159 1.05413,-5.65399 2.49159,-7.85809 h -21.17852 c 1.43746,2.2041 2.49159,5.3665 2.49159,7.85809 v 16.09951 h -15.23704 v -16.09951 c 0,-2.49159 1.05413,-5.65399 2.39576,-7.85809 h -21.08269 c 1.43746,2.2041 2.49159,5.3665 2.49159,7.85809 v 38.42799 c 0,2.49159 -1.05413,5.65399 -2.49159,7.85809 z"
         data-paper-data="{&quot;glyphName&quot;:&quot;H&quot;,&quot;glyphIndex&quot;:0,&quot;lastGlyphOfWord&quot;:true,&quot;firstGlyphOfWord&quot;:true,&quot;word&quot;:1}"
         id="path156" />
      <path
         d="m 208.2062,329.43351 c -0.57498,-2.2041 -0.57498,-5.3665 0.28749,-7.85809 l 1.14996,-3.35406 h 17.44113 l 1.14996,3.35406 c 0.86247,2.49159 0.9583,5.65399 0.28749,7.85809 h 21.08269 c -2.10827,-2.2041 -4.31237,-5.3665 -5.17484,-7.85809 l -15.90785,-46.28609 h -18.11195 c 1.34163,1.53329 2.2041,3.1624 3.1624,4.88735 l -14.27873,41.39874 c -0.86247,2.49159 -2.97074,5.65399 -5.17484,7.85809 z m 4.02488,-18.5911 6.13315,-18.49527 6.22898,18.49527 z"
         data-paper-data="{&quot;glyphName&quot;:&quot;A&quot;,&quot;glyphIndex&quot;:1,&quot;firstGlyphOfWord&quot;:true,&quot;word&quot;:2}"
         id="path158" />
      <path
         d="m 250.56325,329.43351 v 0 h 14.08707 c -1.43746,-2.2041 -2.49159,-5.3665 -2.49159,-7.85809 v -28.94078 l 25.58672,36.79888 h 11.88297 c -1.43746,-2.2041 -2.49159,-5.3665 -2.49159,-7.85809 v -38.42799 c 0,-2.49159 1.05413,-5.65399 2.49159,-7.85809 h -14.08707 c 1.34163,2.2041 2.39576,5.3665 2.39576,7.85809 v 21.84933 l -21.17852,-29.70743 h -16.19534 c 1.43746,2.2041 2.49159,5.3665 2.49159,7.85809 v 38.42799 c 0,2.49159 -1.05413,5.65399 -2.49159,7.85809 z"
         data-paper-data="{&quot;glyphName&quot;:&quot;N&quot;,&quot;glyphIndex&quot;:2,&quot;word&quot;:2}"
         id="path160" />
      <path
         d="m 338.24807,302.31351 v 0 c 0,11.11633 -5.27067,20.02856 -11.9788,20.02856 -1.72495,0 -2.97074,-0.19166 -4.12071,-0.57498 v -38.81132 c 1.14996,-0.38332 2.39576,-0.57498 4.12071,-0.57498 6.70813,0 11.9788,8.91223 11.9788,19.93273 z m -32.29485,-19.16608 v 0 38.42799 c 0,2.49159 -1.05413,5.65399 -2.49159,7.85809 7.5706,0 15.23704,0.28749 22.80764,0.28749 18.97442,0 28.17414,-13.70375 28.17414,-27.4075 0,-13.60792 -9.19972,-27.31167 -28.17414,-27.31167 -7.5706,0 -15.23704,0.28749 -22.80764,0.28749 1.43746,2.2041 2.49159,5.3665 2.49159,7.85809 z"
         data-paper-data="{&quot;glyphName&quot;:&quot;D&quot;,&quot;glyphIndex&quot;:3,&quot;lastGlyphOfWord&quot;:true,&quot;word&quot;:2}"
         id="path162" />
      <path
         d="m 406.19183,302.31351 c 5.27067,-8.62474 12.93711,-19.64523 20.50771,-27.02418 h -17.6328 c 0,5.3665 -2.87491,15.04537 -6.03732,20.12439 -3.1624,-5.07901 -10.25385,-16.19534 -10.25385,-20.12439 h -21.08269 c 2.77908,2.2041 5.74982,5.3665 7.37894,7.85809 l 13.12877,19.26191 c -0.47915,6.80396 -0.0958,21.56184 -3.54573,27.02418 h 21.08269 c -3.44989,-5.55816 -3.06657,-20.22022 -3.54573,-27.12001 z"
         data-paper-data="{&quot;glyphName&quot;:&quot;Y&quot;,&quot;glyphIndex&quot;:4,&quot;firstGlyphOfWord&quot;:true,&quot;lastGlyphOfWord&quot;:true,&quot;word&quot;:3}"
         id="path164" />
    </g>
  </g>
</svg>
