<svg xmlns:mydata="http://www.w3.org/2000/svg" mydata:contrastcolor="ffffff" mydata:template="SingleColorHex1" mydata:presentation="2.5" mydata:layouttype="undefined" mydata:specialfontid="undefined" mydata:id1="729" mydata:id2="017" mydata:companyname="H and Y" mydata:companytagline="Steel Erectors LLC" version="1.1" xmlns="http://www.w3.org/2000/svg" xmlns:xlink="http://www.w3.org/1999/xlink" viewBox="0 35 550 400">
  <g fill="#101820" fill-rule="none" stroke="none" stroke-width="1" stroke-linecap="butt" stroke-linejoin="miter" stroke-miterlimit="10" stroke-dasharray="" stroke-dashoffset="0" font-family="none" font-weight="none" font-size="none" text-anchor="none" style="mix-blend-mode: normal">
    <g data-paper-data="{&quot;isGlobalGroup&quot;:true,&quot;bounds&quot;:{&quot;x&quot;:123.30046206869736,&quot;y&quot;:114.99999999999999,&quot;width&quot;:303.3990758626053,&quot;height&quot;:240}}">
      <g data-paper-data="{&quot;isSecondaryText&quot;:true}" fill-rule="nonzero">
        <path d="M125.08823,350.6776h0.65277c0.08233,0.52927 0.23817,1.00562 0.46753,1.42904c0.22935,0.42342 0.51751,0.78215 0.86448,1.07619c0.34697,0.29404 0.74686,0.52045 1.19969,0.67923c0.45282,0.15878 0.94387,0.23817 1.47315,0.23817c0.87036,0 1.55842,-0.20583 2.06417,-0.61749c0.50575,-0.41166 0.75863,-0.97034 0.75863,-1.67603c0,-0.29404 -0.04999,-0.56456 -0.14996,-0.81155c-0.09997,-0.24699 -0.26758,-0.48517 -0.50281,-0.71452c-0.23523,-0.22935 -0.54986,-0.45576 -0.94387,-0.67923c-0.39401,-0.22347 -0.89094,-0.46458 -1.49079,-0.72334c-0.72922,-0.31756 -1.34083,-0.62337 -1.83482,-0.91741c-0.49399,-0.29404 -0.888,-0.59984 -1.18204,-0.91741c-0.29404,-0.31756 -0.50281,-0.65571 -0.62631,-1.01444c-0.1235,-0.35873 -0.18525,-0.76745 -0.18525,-1.22615c0,-0.54104 0.09703,-1.0409 0.2911,-1.49961c0.19407,-0.4587 0.46753,-0.85566 0.82037,-1.19087c0.35285,-0.33521 0.77039,-0.59396 1.25261,-0.77627c0.48223,-0.18231 1.0115,-0.27346 1.58782,-0.27346c0.51751,0 0.99974,0.08233 1.44668,0.24699c0.44694,0.16466 0.89977,0.4293 1.35847,0.79391l0.4587,-0.79391h0.40578l0.19407,3.51085h-0.65277c-0.28228,-0.96445 -0.691,-1.68191 -1.22615,-2.15238c-0.53515,-0.47047 -1.1791,-0.7057 -1.93185,-0.7057c-0.71746,0 -1.2879,0.17642 -1.71132,0.52927c-0.42342,0.35285 -0.63513,0.8292 -0.63513,1.42904c0,0.28228 0.04705,0.53809 0.14114,0.76745c0.09409,0.22935 0.24699,0.44694 0.4587,0.65277c0.21171,0.20583 0.48811,0.41166 0.8292,0.61749c0.34109,0.20583 0.76451,0.42048 1.27026,0.64395c0.87036,0.38813 1.5937,0.7498 2.17002,1.08501c0.57632,0.33521 1.03502,0.67041 1.37611,1.00562c0.34109,0.33521 0.5822,0.68806 0.72334,1.05855c0.14114,0.37049 0.21171,0.78509 0.21171,1.24379c0,0.58808 -0.11762,1.12912 -0.35285,1.62311c-0.23523,0.49399 -0.56456,0.91741 -0.98798,1.27026c-0.42342,0.35285 -0.92917,0.62631 -1.51725,0.82037c-0.58808,0.19407 -1.23497,0.2911 -1.94067,0.2911c-0.67041,0 -1.2732,-0.09409 -1.80835,-0.28228c-0.53515,-0.18819 -1.07913,-0.50575 -1.63193,-0.95269l-0.49399,0.86448h-0.40578z" data-paper-data="{&quot;glyphName&quot;:&quot;S&quot;,&quot;glyphIndex&quot;:0,&quot;firstGlyphOfWord&quot;:true,&quot;word&quot;:1}"/>
        <path d="M152.86334,344.60859h-0.72334c-0.03528,-0.50575 -0.11762,-0.92917 -0.24699,-1.27026c-0.12938,-0.34109 -0.31462,-0.60866 -0.55574,-0.80273c-0.24111,-0.19407 -0.54398,-0.33227 -0.90859,-0.4146c-0.36461,-0.08233 -0.79979,-0.1235 -1.30554,-0.1235c-0.43518,0 -0.78509,0.00882 -1.04973,0.02646c-0.26464,0.01764 -0.46753,0.04999 -0.60866,0.09703c-0.14114,0.04705 -0.23229,0.10291 -0.27346,0.1676c-0.04117,0.06469 -0.06175,0.14996 -0.06175,0.25582v9.43871c0,0.37637 0.02646,0.69982 0.07939,0.97034c0.05293,0.27052 0.15878,0.49105 0.31756,0.66159c0.15878,0.17054 0.38813,0.29992 0.68806,0.38813c0.29992,0.08821 0.69688,0.1382 1.19087,0.14996v0.67041h-6.66885v-0.67041c0.49399,-0.01176 0.89388,-0.06175 1.19969,-0.14996c0.3058,-0.08821 0.53809,-0.21759 0.69688,-0.38813c0.15878,-0.17054 0.26464,-0.39107 0.31756,-0.66159c0.05293,-0.27052 0.07939,-0.59396 0.07939,-0.97034v-9.43871c0,-0.10585 -0.02058,-0.19113 -0.06175,-0.25582c-0.04117,-0.06469 -0.1235,-0.12056 -0.24699,-0.1676c-0.1235,-0.04705 -0.29698,-0.07939 -0.52045,-0.09703c-0.22347,-0.01764 -0.52339,-0.02646 -0.89977,-0.02646c-0.4587,0 -0.88506,0.01764 -1.27908,0.05293c-0.39401,0.03528 -0.7351,0.1382 -1.02326,0.30874c-0.28816,0.17054 -0.52045,0.43224 -0.69688,0.78509c-0.17642,0.35285 -0.27052,0.84096 -0.28228,1.46432h-0.65277v-3.36971h13.32005z" data-paper-data="{&quot;glyphName&quot;:&quot;T&quot;,&quot;glyphIndex&quot;:1,&quot;word&quot;:1}"/>
        <path d="M161.42581,347.36082c0.63513,0 1.16734,-0.03823 1.59664,-0.11468c0.4293,-0.07645 0.77039,-0.19701 1.02326,-0.36167c0.25288,-0.16466 0.43518,-0.37637 0.54692,-0.63513c0.11174,-0.25876 0.1676,-0.56456 0.1676,-0.91741h0.61749v4.81639h-0.61749c0,-0.35285 -0.04999,-0.65865 -0.14996,-0.91741c-0.09997,-0.25876 -0.2764,-0.47341 -0.52927,-0.64395c-0.25288,-0.17054 -0.59396,-0.29992 -1.02326,-0.38813c-0.4293,-0.08821 -0.97328,-0.13232 -1.63193,-0.13232v3.9872c0,0.38813 0.04705,0.70864 0.14114,0.96151c0.09409,0.25288 0.25582,0.4587 0.48517,0.61749c0.22935,0.15878 0.53221,0.27052 0.90859,0.33521c0.37637,0.06469 0.84096,0.09703 1.39375,0.09703c0.62337,0 1.15264,-0.04411 1.58782,-0.13232c0.43518,-0.08821 0.79979,-0.23817 1.09383,-0.44988c0.29404,-0.21171 0.52927,-0.49105 0.7057,-0.83802c0.17642,-0.34697 0.32345,-0.77921 0.44106,-1.29672h0.67041l-0.26464,3.47556h-10.95597v-0.67041c0.41166,-0.01176 0.74392,-0.04705 0.9968,-0.10585c0.25288,-0.05881 0.44988,-0.15878 0.59102,-0.29992c0.14114,-0.14114 0.23523,-0.34109 0.28228,-0.59984c0.04705,-0.25876 0.07057,-0.59396 0.07057,-1.00562v-8.22138c0,-0.41166 -0.02058,-0.74392 -0.06175,-0.9968c-0.04117,-0.25288 -0.1235,-0.45282 -0.24699,-0.59984c-0.1235,-0.14702 -0.30286,-0.24699 -0.53809,-0.29992c-0.23523,-0.05293 -0.54104,-0.09115 -0.91741,-0.11468v-0.67041h10.19734l0.15878,3.10507h-0.61749c-0.07057,-0.47047 -0.18525,-0.85566 -0.34403,-1.15558c-0.15878,-0.29992 -0.37637,-0.53809 -0.65277,-0.71452c-0.2764,-0.17642 -0.62631,-0.29992 -1.04973,-0.37049c-0.42342,-0.07057 -0.93505,-0.10585 -1.53489,-0.10585h-2.24059c-0.19995,0 -0.29992,0.09997 -0.29992,0.29992z" data-paper-data="{&quot;glyphName&quot;:&quot;E&quot;,&quot;glyphIndex&quot;:2,&quot;word&quot;:1}"/>
        <path d="M177.90974,347.36082c0.63513,0 1.16734,-0.03823 1.59664,-0.11468c0.4293,-0.07645 0.77039,-0.19701 1.02326,-0.36167c0.25288,-0.16466 0.43518,-0.37637 0.54692,-0.63513c0.11174,-0.25876 0.1676,-0.56456 0.1676,-0.91741h0.61749v4.81639h-0.61749c0,-0.35285 -0.04999,-0.65865 -0.14996,-0.91741c-0.09997,-0.25876 -0.2764,-0.47341 -0.52927,-0.64395c-0.25288,-0.17054 -0.59396,-0.29992 -1.02326,-0.38813c-0.4293,-0.08821 -0.97328,-0.13232 -1.63193,-0.13232v3.9872c0,0.38813 0.04705,0.70864 0.14114,0.96151c0.09409,0.25288 0.25582,0.4587 0.48517,0.61749c0.22935,0.15878 0.53221,0.27052 0.90859,0.33521c0.37637,0.06469 0.84096,0.09703 1.39375,0.09703c0.62337,0 1.15264,-0.04411 1.58782,-0.13232c0.43518,-0.08821 0.79979,-0.23817 1.09383,-0.44988c0.29404,-0.21171 0.52927,-0.49105 0.7057,-0.83802c0.17642,-0.34697 0.32345,-0.77921 0.44106,-1.29672h0.67041l-0.26464,3.47556h-10.95597v-0.67041c0.41166,-0.01176 0.74392,-0.04705 0.9968,-0.10585c0.25288,-0.05881 0.44988,-0.15878 0.59102,-0.29992c0.14114,-0.14114 0.23523,-0.34109 0.28228,-0.59984c0.04705,-0.25876 0.07057,-0.59396 0.07057,-1.00562v-8.22138c0,-0.41166 -0.02058,-0.74392 -0.06175,-0.9968c-0.04117,-0.25288 -0.1235,-0.45282 -0.24699,-0.59984c-0.1235,-0.14702 -0.30286,-0.24699 -0.53809,-0.29992c-0.23523,-0.05293 -0.54104,-0.09115 -0.91741,-0.11468v-0.67041h10.19734l0.15878,3.10507h-0.61749c-0.07057,-0.47047 -0.18525,-0.85566 -0.34403,-1.15558c-0.15878,-0.29992 -0.37637,-0.53809 -0.65277,-0.71452c-0.2764,-0.17642 -0.62631,-0.29992 -1.04973,-0.37049c-0.42342,-0.07057 -0.93505,-0.10585 -1.53489,-0.10585h-2.24059c-0.19995,0 -0.29992,0.09997 -0.29992,0.29992z" data-paper-data="{&quot;glyphName&quot;:&quot;E&quot;,&quot;glyphIndex&quot;:3,&quot;word&quot;:1}"/>
        <path d="M201.99758,354.82358h-11.39703v-0.67041c0.41166,-0.01176 0.74392,-0.04705 0.9968,-0.10585c0.25288,-0.05881 0.44988,-0.15878 0.59102,-0.29992c0.14114,-0.14114 0.23523,-0.34109 0.28228,-0.59984c0.04705,-0.25876 0.07057,-0.59396 0.07057,-1.00562v-8.22138c0,-0.41166 -0.02058,-0.74392 -0.06175,-0.9968c-0.04117,-0.25288 -0.1235,-0.45282 -0.24699,-0.59984c-0.1235,-0.14702 -0.30286,-0.24699 -0.53809,-0.29992c-0.23523,-0.05293 -0.54104,-0.09115 -0.91741,-0.11468v-0.67041h5.36331v0.67041c-0.37637,0.01176 -0.67923,0.04705 -0.90859,0.10585c-0.22935,0.05881 -0.40578,0.16466 -0.52927,0.31756c-0.1235,0.1529 -0.20583,0.36461 -0.24699,0.63513c-0.04117,0.27052 -0.06175,0.62925 -0.06175,1.07619v7.6039c0,0.49399 0.04999,0.89682 0.14996,1.20851c0.09997,0.31168 0.27052,0.5528 0.51163,0.72334c0.24111,0.17054 0.56162,0.28816 0.96151,0.35285c0.3999,0.06469 0.90565,0.09703 1.51725,0.09703c0.67041,0 1.23497,-0.03823 1.69368,-0.11468c0.4587,-0.07645 0.8439,-0.21171 1.15558,-0.40578c0.31168,-0.19407 0.55868,-0.46458 0.74098,-0.81155c0.18231,-0.34697 0.33815,-0.79685 0.46753,-1.34965h0.67041z" data-paper-data="{&quot;glyphName&quot;:&quot;L&quot;,&quot;glyphIndex&quot;:4,&quot;lastGlyphOfWord&quot;:true,&quot;word&quot;:1}"/>
        <path d="M219.10488,347.36082c0.63513,0 1.16734,-0.03823 1.59664,-0.11468c0.4293,-0.07645 0.77039,-0.19701 1.02326,-0.36167c0.25288,-0.16466 0.43518,-0.37637 0.54692,-0.63513c0.11174,-0.25876 0.1676,-0.56456 0.1676,-0.91741h0.61749v4.81639h-0.61749c0,-0.35285 -0.04999,-0.65865 -0.14996,-0.91741c-0.09997,-0.25876 -0.2764,-0.47341 -0.52927,-0.64395c-0.25288,-0.17054 -0.59396,-0.29992 -1.02326,-0.38813c-0.4293,-0.08821 -0.97328,-0.13232 -1.63193,-0.13232v3.9872c0,0.38813 0.04705,0.70864 0.14114,0.96151c0.09409,0.25288 0.25582,0.4587 0.48517,0.61749c0.22935,0.15878 0.53221,0.27052 0.90859,0.33521c0.37637,0.06469 0.84096,0.09703 1.39375,0.09703c0.62337,0 1.15264,-0.04411 1.58782,-0.13232c0.43518,-0.08821 0.79979,-0.23817 1.09383,-0.44988c0.29404,-0.21171 0.52927,-0.49105 0.7057,-0.83802c0.17642,-0.34697 0.32345,-0.77921 0.44106,-1.29672h0.67041l-0.26464,3.47556h-10.95597v-0.67041c0.41166,-0.01176 0.74392,-0.04705 0.9968,-0.10585c0.25288,-0.05881 0.44988,-0.15878 0.59102,-0.29992c0.14114,-0.14114 0.23523,-0.34109 0.28228,-0.59984c0.04705,-0.25876 0.07057,-0.59396 0.07057,-1.00562v-8.22138c0,-0.41166 -0.02058,-0.74392 -0.06175,-0.9968c-0.04117,-0.25288 -0.1235,-0.45282 -0.24699,-0.59984c-0.1235,-0.14702 -0.30286,-0.24699 -0.53809,-0.29992c-0.23523,-0.05293 -0.54104,-0.09115 -0.91741,-0.11468v-0.67041h10.19734l0.15878,3.10507h-0.61749c-0.07057,-0.47047 -0.18525,-0.85566 -0.34403,-1.15558c-0.15878,-0.29992 -0.37637,-0.53809 -0.65277,-0.71452c-0.2764,-0.17642 -0.62631,-0.29992 -1.04973,-0.37049c-0.42342,-0.07057 -0.93505,-0.10585 -1.53489,-0.10585h-2.24059c-0.19995,0 -0.29992,0.09997 -0.29992,0.29992z" data-paper-data="{&quot;glyphName&quot;:&quot;E&quot;,&quot;glyphIndex&quot;:5,&quot;firstGlyphOfWord&quot;:true,&quot;word&quot;:2}"/>
        <path d="M242.61051,344.64388c0,0.94093 -0.28228,1.72308 -0.84684,2.34645c-0.56456,0.62337 -1.46432,1.0409 -2.6993,1.25261l3.89898,4.69289c0.31756,0.38813 0.66747,0.66747 1.04973,0.83802c0.38225,0.17054 0.83802,0.29698 1.36729,0.37931v0.67041h-3.40499l-4.3224,-5.53973c-0.1529,-0.19995 -0.29698,-0.35873 -0.43224,-0.47635c-0.13526,-0.11762 -0.2764,-0.20877 -0.42342,-0.27346c-0.14702,-0.06469 -0.31756,-0.10585 -0.51163,-0.1235c-0.19407,-0.01764 -0.42636,-0.02646 -0.69688,-0.02646v3.66963c0,0.43518 0.02646,0.79097 0.07939,1.06737c0.05293,0.2764 0.16466,0.49105 0.33521,0.64395c0.17054,0.1529 0.41754,0.25582 0.74098,0.30874c0.32345,0.05293 0.7498,0.07939 1.27908,0.07939v0.67041h-6.22779v-0.67041c0.41166,-0.01176 0.74392,-0.04705 0.9968,-0.10585c0.25288,-0.05881 0.44988,-0.15878 0.59102,-0.29992c0.14114,-0.14114 0.23523,-0.34109 0.28228,-0.59984c0.04705,-0.25876 0.07057,-0.59396 0.07057,-1.00562v-8.22138c0,-0.41166 -0.02058,-0.74392 -0.06175,-0.9968c-0.04117,-0.25288 -0.1235,-0.45282 -0.24699,-0.59984c-0.1235,-0.14702 -0.30286,-0.24699 -0.53809,-0.29992c-0.23523,-0.05293 -0.54104,-0.09115 -0.91741,-0.11468v-0.67041h5.53973c1.62311,0 2.87866,0.29992 3.76666,0.89977c0.888,0.59984 1.33201,1.43492 1.33201,2.50523zM235.58882,347.50196h1.25261c1.17616,0 2.04947,-0.21465 2.6199,-0.64395c0.57044,-0.4293 0.85566,-1.13794 0.85566,-2.12592c0,-0.95269 -0.22641,-1.63487 -0.67923,-2.04652c-0.45282,-0.41166 -1.16146,-0.61749 -2.12592,-0.61749h-1.62311c-0.19995,0 -0.29992,0.09997 -0.29992,0.29992z" data-paper-data="{&quot;glyphName&quot;:&quot;R&quot;,&quot;glyphIndex&quot;:6,&quot;word&quot;:2}"/>
        <path d="M253.16658,347.36082c0.63513,0 1.16734,-0.03823 1.59664,-0.11468c0.4293,-0.07645 0.77039,-0.19701 1.02326,-0.36167c0.25288,-0.16466 0.43518,-0.37637 0.54692,-0.63513c0.11174,-0.25876 0.1676,-0.56456 0.1676,-0.91741h0.61749v4.81639h-0.61749c0,-0.35285 -0.04999,-0.65865 -0.14996,-0.91741c-0.09997,-0.25876 -0.2764,-0.47341 -0.52927,-0.64395c-0.25288,-0.17054 -0.59396,-0.29992 -1.02326,-0.38813c-0.4293,-0.08821 -0.97328,-0.13232 -1.63193,-0.13232v3.9872c0,0.38813 0.04705,0.70864 0.14114,0.96151c0.09409,0.25288 0.25582,0.4587 0.48517,0.61749c0.22935,0.15878 0.53221,0.27052 0.90859,0.33521c0.37637,0.06469 0.84096,0.09703 1.39375,0.09703c0.62337,0 1.15264,-0.04411 1.58782,-0.13232c0.43518,-0.08821 0.79979,-0.23817 1.09383,-0.44988c0.29404,-0.21171 0.52927,-0.49105 0.7057,-0.83802c0.17642,-0.34697 0.32345,-0.77921 0.44106,-1.29672h0.67041l-0.26464,3.47556h-10.95597v-0.67041c0.41166,-0.01176 0.74392,-0.04705 0.9968,-0.10585c0.25288,-0.05881 0.44988,-0.15878 0.59102,-0.29992c0.14114,-0.14114 0.23523,-0.34109 0.28228,-0.59984c0.04705,-0.25876 0.07057,-0.59396 0.07057,-1.00562v-8.22138c0,-0.41166 -0.02058,-0.74392 -0.06175,-0.9968c-0.04117,-0.25288 -0.1235,-0.45282 -0.24699,-0.59984c-0.1235,-0.14702 -0.30286,-0.24699 -0.53809,-0.29992c-0.23523,-0.05293 -0.54104,-0.09115 -0.91741,-0.11468v-0.67041h10.19734l0.15878,3.10507h-0.61749c-0.07057,-0.47047 -0.18525,-0.85566 -0.34403,-1.15558c-0.15878,-0.29992 -0.37637,-0.53809 -0.65277,-0.71452c-0.2764,-0.17642 -0.62631,-0.29992 -1.04973,-0.37049c-0.42342,-0.07057 -0.93505,-0.10585 -1.53489,-0.10585h-2.24059c-0.19995,0 -0.29992,0.09997 -0.29992,0.29992z" data-paper-data="{&quot;glyphName&quot;:&quot;E&quot;,&quot;glyphIndex&quot;:7,&quot;word&quot;:2}"/>
        <path d="M277.21913,341.23888h0.49399l0.15878,4.05776h-0.65277c-0.25876,-1.03502 -0.75863,-1.84658 -1.49961,-2.43466c-0.74098,-0.58808 -1.63487,-0.88212 -2.68165,-0.88212c-0.71746,0 -1.35847,0.14114 -1.92303,0.42342c-0.56456,0.28228 -1.0409,0.68806 -1.42904,1.21733c-0.38813,0.52927 -0.68512,1.17616 -0.89094,1.94067c-0.20583,0.76451 -0.30874,1.62899 -0.30874,2.59344c0,1.89362 0.39401,3.34913 1.18204,4.36651c0.78803,1.01738 1.92891,1.52607 3.42264,1.52607c2.27,0 3.72844,-1.20557 4.37533,-3.6167h0.72334v4.39297h-0.61749l-0.40578,-1.39375c-1.23497,1.04679 -2.7287,1.57018 -4.48118,1.57018c-0.99974,0 -1.90244,-0.15878 -2.70812,-0.47635c-0.80567,-0.31756 -1.49373,-0.76745 -2.06417,-1.34965c-0.57044,-0.5822 -1.0115,-1.29084 -1.32318,-2.12592c-0.31168,-0.83508 -0.46753,-1.76425 -0.46753,-2.78751c0,-1.07031 0.16466,-2.04652 0.49399,-2.92865c0.32933,-0.88212 0.79097,-1.64075 1.38493,-2.27588c0.59396,-0.63513 1.30554,-1.12618 2.13474,-1.47315c0.8292,-0.34697 1.74366,-0.52045 2.7434,-0.52045c0.7057,0 1.37023,0.09997 1.9936,0.29992c0.62337,0.19995 1.29966,0.52339 2.02888,0.97034z" data-paper-data="{&quot;glyphName&quot;:&quot;C&quot;,&quot;glyphIndex&quot;:8,&quot;word&quot;:2}"/>
        <path d="M296.75521,344.60859h-0.72334c-0.03528,-0.50575 -0.11762,-0.92917 -0.24699,-1.27026c-0.12938,-0.34109 -0.31462,-0.60866 -0.55574,-0.80273c-0.24111,-0.19407 -0.54398,-0.33227 -0.90859,-0.4146c-0.36461,-0.08233 -0.79979,-0.1235 -1.30554,-0.1235c-0.43518,0 -0.78509,0.00882 -1.04973,0.02646c-0.26464,0.01764 -0.46753,0.04999 -0.60866,0.09703c-0.14114,0.04705 -0.23229,0.10291 -0.27346,0.1676c-0.04117,0.06469 -0.06175,0.14996 -0.06175,0.25582v9.43871c0,0.37637 0.02646,0.69982 0.07939,0.97034c0.05293,0.27052 0.15878,0.49105 0.31756,0.66159c0.15878,0.17054 0.38813,0.29992 0.68806,0.38813c0.29992,0.08821 0.69688,0.1382 1.19087,0.14996v0.67041h-6.66885v-0.67041c0.49399,-0.01176 0.89388,-0.06175 1.19969,-0.14996c0.3058,-0.08821 0.53809,-0.21759 0.69688,-0.38813c0.15878,-0.17054 0.26464,-0.39107 0.31756,-0.66159c0.05293,-0.27052 0.07939,-0.59396 0.07939,-0.97034v-9.43871c0,-0.10585 -0.02058,-0.19113 -0.06175,-0.25582c-0.04117,-0.06469 -0.1235,-0.12056 -0.24699,-0.1676c-0.1235,-0.04705 -0.29698,-0.07939 -0.52045,-0.09703c-0.22347,-0.01764 -0.52339,-0.02646 -0.89977,-0.02646c-0.4587,0 -0.88506,0.01764 -1.27908,0.05293c-0.39401,0.03528 -0.7351,0.1382 -1.02326,0.30874c-0.28816,0.17054 -0.52045,0.43224 -0.69688,0.78509c-0.17642,0.35285 -0.27052,0.84096 -0.28228,1.46432h-0.65277v-3.36971h13.32005z" data-paper-data="{&quot;glyphName&quot;:&quot;T&quot;,&quot;glyphIndex&quot;:9,&quot;word&quot;:2}"/>
        <path d="M308.91675,341.06246c1.03502,0 1.99948,0.18231 2.89336,0.54692c0.89388,0.36461 1.67015,0.86448 2.3288,1.49961c0.65865,0.63513 1.17616,1.38199 1.55254,2.24059c0.37637,0.8586 0.56456,1.78777 0.56456,2.78751c0,0.95269 -0.19113,1.84658 -0.57338,2.68165c-0.38225,0.83508 -0.90271,1.56136 -1.56136,2.17884c-0.65865,0.61749 -1.43492,1.10559 -2.3288,1.46432c-0.89388,0.35873 -1.85246,0.53809 -2.87572,0.53809c-1.02326,0 -1.98184,-0.17936 -2.87572,-0.53809c-0.89388,-0.35873 -1.67015,-0.84684 -2.3288,-1.46432c-0.65865,-0.61749 -1.1791,-1.34377 -1.56136,-2.17884c-0.38225,-0.83508 -0.57338,-1.72896 -0.57338,-2.68165c0,-0.99974 0.18819,-1.92891 0.56456,-2.78751c0.37637,-0.8586 0.89388,-1.60546 1.55254,-2.24059c0.65865,-0.63513 1.43492,-1.135 2.3288,-1.49961c0.89388,-0.36461 1.85834,-0.54692 2.89336,-0.54692zM308.91675,354.02966c0.77627,0 1.47315,-0.13526 2.09063,-0.40578c0.61749,-0.27052 1.14676,-0.65865 1.58782,-1.1644c0.44106,-0.50575 0.77921,-1.1203 1.01444,-1.84364c0.23523,-0.72334 0.35285,-1.53195 0.35285,-2.42584c0,-0.94093 -0.11762,-1.79071 -0.35285,-2.54933c-0.23523,-0.75863 -0.57044,-1.40552 -1.00562,-1.94067c-0.43518,-0.53515 -0.96445,-0.94681 -1.58782,-1.23497c-0.62337,-0.28816 -1.32318,-0.43224 -2.09945,-0.43224c-0.77627,0 -1.47609,0.14408 -2.09945,0.43224c-0.62337,0.28816 -1.15264,0.69982 -1.58782,1.23497c-0.43518,0.53515 -0.77039,1.18204 -1.00562,1.94067c-0.23523,0.75863 -0.35285,1.6084 -0.35285,2.54933c0,0.89388 0.11762,1.7025 0.35285,2.42584c0.23523,0.72334 0.57044,1.33789 1.00562,1.84364c0.43518,0.50575 0.96445,0.89388 1.58782,1.1644c0.62337,0.27052 1.32318,0.40578 2.09945,0.40578z" data-paper-data="{&quot;glyphName&quot;:&quot;O&quot;,&quot;glyphIndex&quot;:10,&quot;word&quot;:2}"/>
        <path d="M332.31652,344.64388c0,0.94093 -0.28228,1.72308 -0.84684,2.34645c-0.56456,0.62337 -1.46432,1.0409 -2.6993,1.25261l3.89898,4.69289c0.31756,0.38813 0.66747,0.66747 1.04973,0.83802c0.38225,0.17054 0.83802,0.29698 1.36729,0.37931v0.67041h-3.40499l-4.3224,-5.53973c-0.1529,-0.19995 -0.29698,-0.35873 -0.43224,-0.47635c-0.13526,-0.11762 -0.2764,-0.20877 -0.42342,-0.27346c-0.14702,-0.06469 -0.31756,-0.10585 -0.51163,-0.1235c-0.19407,-0.01764 -0.42636,-0.02646 -0.69688,-0.02646v3.66963c0,0.43518 0.02646,0.79097 0.07939,1.06737c0.05293,0.2764 0.16466,0.49105 0.33521,0.64395c0.17054,0.1529 0.41754,0.25582 0.74098,0.30874c0.32345,0.05293 0.7498,0.07939 1.27908,0.07939v0.67041h-6.22779v-0.67041c0.41166,-0.01176 0.74392,-0.04705 0.9968,-0.10585c0.25288,-0.05881 0.44988,-0.15878 0.59102,-0.29992c0.14114,-0.14114 0.23523,-0.34109 0.28228,-0.59984c0.04705,-0.25876 0.07057,-0.59396 0.07057,-1.00562v-8.22138c0,-0.41166 -0.02058,-0.74392 -0.06175,-0.9968c-0.04117,-0.25288 -0.1235,-0.45282 -0.24699,-0.59984c-0.1235,-0.14702 -0.30286,-0.24699 -0.53809,-0.29992c-0.23523,-0.05293 -0.54104,-0.09115 -0.91741,-0.11468v-0.67041h5.53973c1.62311,0 2.87866,0.29992 3.76666,0.89977c0.888,0.59984 1.33201,1.43492 1.33201,2.50523zM325.29483,347.50196h1.25261c1.17616,0 2.04947,-0.21465 2.6199,-0.64395c0.57044,-0.4293 0.85566,-1.13794 0.85566,-2.12592c0,-0.95269 -0.22641,-1.63487 -0.67923,-2.04652c-0.45282,-0.41166 -1.16146,-0.61749 -2.12592,-0.61749h-1.62311c-0.19995,0 -0.29992,0.09997 -0.29992,0.29992z" data-paper-data="{&quot;glyphName&quot;:&quot;R&quot;,&quot;glyphIndex&quot;:11,&quot;word&quot;:2}"/>
        <path d="M339.30882,350.6776h0.65277c0.08233,0.52927 0.23817,1.00562 0.46753,1.42904c0.22935,0.42342 0.51751,0.78215 0.86448,1.07619c0.34697,0.29404 0.74686,0.52045 1.19969,0.67923c0.45282,0.15878 0.94387,0.23817 1.47315,0.23817c0.87036,0 1.55842,-0.20583 2.06417,-0.61749c0.50575,-0.41166 0.75863,-0.97034 0.75863,-1.67603c0,-0.29404 -0.04999,-0.56456 -0.14996,-0.81155c-0.09997,-0.24699 -0.26758,-0.48517 -0.50281,-0.71452c-0.23523,-0.22935 -0.54986,-0.45576 -0.94387,-0.67923c-0.39401,-0.22347 -0.89094,-0.46458 -1.49079,-0.72334c-0.72922,-0.31756 -1.34083,-0.62337 -1.83482,-0.91741c-0.49399,-0.29404 -0.888,-0.59984 -1.18204,-0.91741c-0.29404,-0.31756 -0.50281,-0.65571 -0.62631,-1.01444c-0.1235,-0.35873 -0.18525,-0.76745 -0.18525,-1.22615c0,-0.54104 0.09703,-1.0409 0.2911,-1.49961c0.19407,-0.4587 0.46753,-0.85566 0.82037,-1.19087c0.35285,-0.33521 0.77039,-0.59396 1.25261,-0.77627c0.48223,-0.18231 1.0115,-0.27346 1.58782,-0.27346c0.51751,0 0.99974,0.08233 1.44668,0.24699c0.44694,0.16466 0.89977,0.4293 1.35847,0.79391l0.4587,-0.79391h0.40578l0.19407,3.51085h-0.65277c-0.28228,-0.96445 -0.691,-1.68191 -1.22615,-2.15238c-0.53515,-0.47047 -1.1791,-0.7057 -1.93185,-0.7057c-0.71746,0 -1.2879,0.17642 -1.71132,0.52927c-0.42342,0.35285 -0.63513,0.8292 -0.63513,1.42904c0,0.28228 0.04705,0.53809 0.14114,0.76745c0.09409,0.22935 0.24699,0.44694 0.4587,0.65277c0.21171,0.20583 0.48811,0.41166 0.8292,0.61749c0.34109,0.20583 0.76451,0.42048 1.27026,0.64395c0.87036,0.38813 1.5937,0.7498 2.17002,1.08501c0.57632,0.33521 1.03502,0.67041 1.37611,1.00562c0.34109,0.33521 0.5822,0.68806 0.72334,1.05855c0.14114,0.37049 0.21171,0.78509 0.21171,1.24379c0,0.58808 -0.11762,1.12912 -0.35285,1.62311c-0.23523,0.49399 -0.56456,0.91741 -0.98798,1.27026c-0.42342,0.35285 -0.92917,0.62631 -1.51725,0.82037c-0.58808,0.19407 -1.23497,0.2911 -1.94067,0.2911c-0.67041,0 -1.2732,-0.09409 -1.80835,-0.28228c-0.53515,-0.18819 -1.07913,-0.50575 -1.63193,-0.95269l-0.49399,0.86448h-0.40578z" data-paper-data="{&quot;glyphName&quot;:&quot;S&quot;,&quot;glyphIndex&quot;:12,&quot;lastGlyphOfWord&quot;:true,&quot;word&quot;:2}"/>
        <path d="M374.27028,354.82358h-11.39703v-0.67041c0.41166,-0.01176 0.74392,-0.04705 0.9968,-0.10585c0.25288,-0.05881 0.44988,-0.15878 0.59102,-0.29992c0.14114,-0.14114 0.23523,-0.34109 0.28228,-0.59984c0.04705,-0.25876 0.07057,-0.59396 0.07057,-1.00562v-8.22138c0,-0.41166 -0.02058,-0.74392 -0.06175,-0.9968c-0.04117,-0.25288 -0.1235,-0.45282 -0.24699,-0.59984c-0.1235,-0.14702 -0.30286,-0.24699 -0.53809,-0.29992c-0.23523,-0.05293 -0.54104,-0.09115 -0.91741,-0.11468v-0.67041h5.36331v0.67041c-0.37637,0.01176 -0.67923,0.04705 -0.90859,0.10585c-0.22935,0.05881 -0.40578,0.16466 -0.52927,0.31756c-0.1235,0.1529 -0.20583,0.36461 -0.24699,0.63513c-0.04117,0.27052 -0.06175,0.62925 -0.06175,1.07619v7.6039c0,0.49399 0.04999,0.89682 0.14996,1.20851c0.09997,0.31168 0.27052,0.5528 0.51163,0.72334c0.24111,0.17054 0.56162,0.28816 0.96151,0.35285c0.3999,0.06469 0.90565,0.09703 1.51725,0.09703c0.67041,0 1.23497,-0.03823 1.69368,-0.11468c0.4587,-0.07645 0.8439,-0.21171 1.15558,-0.40578c0.31168,-0.19407 0.55868,-0.46458 0.74098,-0.81155c0.18231,-0.34697 0.33815,-0.79685 0.46753,-1.34965h0.67041z" data-paper-data="{&quot;glyphName&quot;:&quot;L&quot;,&quot;glyphIndex&quot;:13,&quot;firstGlyphOfWord&quot;:true,&quot;word&quot;:3}"/>
        <path d="M390.77186,354.82358h-11.39703v-0.67041c0.41166,-0.01176 0.74392,-0.04705 0.9968,-0.10585c0.25288,-0.05881 0.44988,-0.15878 0.59102,-0.29992c0.14114,-0.14114 0.23523,-0.34109 0.28228,-0.59984c0.04705,-0.25876 0.07057,-0.59396 0.07057,-1.00562v-8.22138c0,-0.41166 -0.02058,-0.74392 -0.06175,-0.9968c-0.04117,-0.25288 -0.1235,-0.45282 -0.24699,-0.59984c-0.1235,-0.14702 -0.30286,-0.24699 -0.53809,-0.29992c-0.23523,-0.05293 -0.54104,-0.09115 -0.91741,-0.11468v-0.67041h5.36331v0.67041c-0.37637,0.01176 -0.67923,0.04705 -0.90859,0.10585c-0.22935,0.05881 -0.40578,0.16466 -0.52927,0.31756c-0.1235,0.1529 -0.20583,0.36461 -0.24699,0.63513c-0.04117,0.27052 -0.06175,0.62925 -0.06175,1.07619v7.6039c0,0.49399 0.04999,0.89682 0.14996,1.20851c0.09997,0.31168 0.27052,0.5528 0.51163,0.72334c0.24111,0.17054 0.56162,0.28816 0.96151,0.35285c0.3999,0.06469 0.90565,0.09703 1.51725,0.09703c0.67041,0 1.23497,-0.03823 1.69368,-0.11468c0.4587,-0.07645 0.8439,-0.21171 1.15558,-0.40578c0.31168,-0.19407 0.55868,-0.46458 0.74098,-0.81155c0.18231,-0.34697 0.33815,-0.79685 0.46753,-1.34965h0.67041z" data-paper-data="{&quot;glyphName&quot;:&quot;L&quot;,&quot;glyphIndex&quot;:14,&quot;word&quot;:3}"/>
        <path d="M407.23815,341.23888h0.49399l0.15878,4.05776h-0.65277c-0.25876,-1.03502 -0.75863,-1.84658 -1.49961,-2.43466c-0.74098,-0.58808 -1.63487,-0.88212 -2.68165,-0.88212c-0.71746,0 -1.35847,0.14114 -1.92303,0.42342c-0.56456,0.28228 -1.0409,0.68806 -1.42904,1.21733c-0.38813,0.52927 -0.68512,1.17616 -0.89094,1.94067c-0.20583,0.76451 -0.30874,1.62899 -0.30874,2.59344c0,1.89362 0.39401,3.34913 1.18204,4.36651c0.78803,1.01738 1.92891,1.52607 3.42264,1.52607c2.27,0 3.72844,-1.20557 4.37533,-3.6167h0.72334v4.39297h-0.61749l-0.40578,-1.39375c-1.23497,1.04679 -2.7287,1.57018 -4.48118,1.57018c-0.99974,0 -1.90244,-0.15878 -2.70812,-0.47635c-0.80567,-0.31756 -1.49373,-0.76745 -2.06417,-1.34965c-0.57044,-0.5822 -1.0115,-1.29084 -1.32318,-2.12592c-0.31168,-0.83508 -0.46753,-1.76425 -0.46753,-2.78751c0,-1.07031 0.16466,-2.04652 0.49399,-2.92865c0.32933,-0.88212 0.79097,-1.64075 1.38493,-2.27588c0.59396,-0.63513 1.30554,-1.12618 2.13474,-1.47315c0.8292,-0.34697 1.74366,-0.52045 2.7434,-0.52045c0.7057,0 1.37023,0.09997 1.9936,0.29992c0.62337,0.19995 1.29966,0.52339 2.02888,0.97034z" data-paper-data="{&quot;glyphName&quot;:&quot;C&quot;,&quot;glyphIndex&quot;:15,&quot;lastGlyphOfWord&quot;:true,&quot;word&quot;:3}"/>
      </g>
      <g data-paper-data="{&quot;isPrimaryText&quot;:true}" fill-rule="nonzero">
        <path d="M123.30046,329.43351v0h21.08269c-1.34163,-2.2041 -2.39576,-5.3665 -2.39576,-7.85809v-14.94954h15.23704v14.94954c0,2.49159 -1.05413,5.65399 -2.49159,7.85809h21.17852c-1.43746,-2.2041 -2.49159,-5.3665 -2.49159,-7.85809v-38.42799c0,-2.49159 1.05413,-5.65399 2.49159,-7.85809h-21.17852c1.43746,2.2041 2.49159,5.3665 2.49159,7.85809v16.09951h-15.23704v-16.09951c0,-2.49159 1.05413,-5.65399 2.39576,-7.85809h-21.08269c1.43746,2.2041 2.49159,5.3665 2.49159,7.85809v38.42799c0,2.49159 -1.05413,5.65399 -2.49159,7.85809z" data-paper-data="{&quot;glyphName&quot;:&quot;H&quot;,&quot;glyphIndex&quot;:0,&quot;lastGlyphOfWord&quot;:true,&quot;firstGlyphOfWord&quot;:true,&quot;word&quot;:1}"/>
        <path d="M208.2062,329.43351c-0.57498,-2.2041 -0.57498,-5.3665 0.28749,-7.85809l1.14996,-3.35406h17.44113l1.14996,3.35406c0.86247,2.49159 0.9583,5.65399 0.28749,7.85809h21.08269c-2.10827,-2.2041 -4.31237,-5.3665 -5.17484,-7.85809l-15.90785,-46.28609h-18.11195c1.34163,1.53329 2.2041,3.1624 3.1624,4.88735l-14.27873,41.39874c-0.86247,2.49159 -2.97074,5.65399 -5.17484,7.85809zM212.23108,310.84241l6.13315,-18.49527l6.22898,18.49527z" data-paper-data="{&quot;glyphName&quot;:&quot;A&quot;,&quot;glyphIndex&quot;:1,&quot;firstGlyphOfWord&quot;:true,&quot;word&quot;:2}"/>
        <path d="M250.56325,329.43351v0h14.08707c-1.43746,-2.2041 -2.49159,-5.3665 -2.49159,-7.85809v-28.94078l25.58672,36.79888h11.88297c-1.43746,-2.2041 -2.49159,-5.3665 -2.49159,-7.85809v-38.42799c0,-2.49159 1.05413,-5.65399 2.49159,-7.85809h-14.08707c1.34163,2.2041 2.39576,5.3665 2.39576,7.85809v21.84933l-21.17852,-29.70743h-16.19534c1.43746,2.2041 2.49159,5.3665 2.49159,7.85809v38.42799c0,2.49159 -1.05413,5.65399 -2.49159,7.85809z" data-paper-data="{&quot;glyphName&quot;:&quot;N&quot;,&quot;glyphIndex&quot;:2,&quot;word&quot;:2}"/>
        <path d="M338.24807,302.31351v0c0,11.11633 -5.27067,20.02856 -11.9788,20.02856c-1.72495,0 -2.97074,-0.19166 -4.12071,-0.57498v-38.81132c1.14996,-0.38332 2.39576,-0.57498 4.12071,-0.57498c6.70813,0 11.9788,8.91223 11.9788,19.93273zM305.95322,283.14743v0v38.42799c0,2.49159 -1.05413,5.65399 -2.49159,7.85809c7.5706,0 15.23704,0.28749 22.80764,0.28749c18.97442,0 28.17414,-13.70375 28.17414,-27.4075c0,-13.60792 -9.19972,-27.31167 -28.17414,-27.31167c-7.5706,0 -15.23704,0.28749 -22.80764,0.28749c1.43746,2.2041 2.49159,5.3665 2.49159,7.85809z" data-paper-data="{&quot;glyphName&quot;:&quot;D&quot;,&quot;glyphIndex&quot;:3,&quot;lastGlyphOfWord&quot;:true,&quot;word&quot;:2}"/>
        <path d="M406.19183,302.31351c5.27067,-8.62474 12.93711,-19.64523 20.50771,-27.02418h-17.6328c0,5.3665 -2.87491,15.04537 -6.03732,20.12439c-3.1624,-5.07901 -10.25385,-16.19534 -10.25385,-20.12439h-21.08269c2.77908,2.2041 5.74982,5.3665 7.37894,7.85809l13.12877,19.26191c-0.47915,6.80396 -0.09583,21.56184 -3.54573,27.02418h21.08269c-3.44989,-5.55816 -3.06657,-20.22022 -3.54573,-27.12001z" data-paper-data="{&quot;glyphName&quot;:&quot;Y&quot;,&quot;glyphIndex&quot;:4,&quot;firstGlyphOfWord&quot;:true,&quot;lastGlyphOfWord&quot;:true,&quot;word&quot;:3}"/>
      </g>
      <g data-paper-data="{&quot;fillRule&quot;:&quot;evenodd&quot;,&quot;fillRuleOriginal&quot;:&quot;evenodd&quot;,&quot;isIcon&quot;:true,&quot;iconStyle&quot;:&quot;standalone&quot;,&quot;selectedEffects&quot;:{&quot;container&quot;:&quot;&quot;,&quot;transformation&quot;:&quot;&quot;,&quot;pattern&quot;:&quot;&quot;},&quot;bounds&quot;:{&quot;x&quot;:202.18324696809435,&quot;y&quot;:114.99999999999999,&quot;width&quot;:145.63350606381135,&quot;height&quot;:131.9947534607282},&quot;iconType&quot;:&quot;icon&quot;,&quot;rawIconId&quot;:&quot;14446&quot;,&quot;combineTerms&quot;:&quot;steel&quot;,&quot;isDetailed&quot;:false,&quot;suitableAsStandaloneIcon&quot;:true}" fill-rule="evenodd">
        <path d="M347.80617,134.93573v0.34238h0.01059l-0.01059,0.04941v10.51143l-43.07641,101.1558l-94.84647,-29.33354l-1.13656,-15.89775l34.70045,9.14368l0.45004,-1.70661l-33.89038,-8.93013l34.93693,-24.13077l0.05295,-4.50389l-42.81345,-7.61003v-14.72589l105.46556,15.74951l40.15735,-50.04933v3.84207l-38.4331,62.51445l-13.1993,-2.29077l-31.77079,33.2568c-0.01765,-5.65634 0.10589,-12.85868 0.22767,-19.86513c0.11295,-6.54582 0.22061,-12.72808 0.22061,-17.70142h-1.76485c0,4.95922 -0.10765,11.13442 -0.22061,17.67142c-0.13413,7.73004 -0.27179,15.72127 -0.22061,21.60527l0.12354,-0.00176l-0.04589,0.04765l-0.07589,1.42776l39.53083,13.22401l44.82891,-92.14802l-7.29764,-1.32717l0.2559,-1.40482l7.68944,1.39952z" data-paper-data="{&quot;isPathIcon&quot;:true}"/>
      </g>
    </g>
  </g>
</svg>
